HIERARCHY
ROOT Hips
{
	OFFSET 0.000000 0.000000 0.000000
	CHANNELS 6 Xposition Yposition Zposition Xrotation Yrotation Zrotation
	JOINT LeftUpLeg_virtual
	{
		OFFSET 0.000000 0.000000 0.000000
		CHANNELS 3 Xrotation Yrotation Zrotation
		JOINT LeftUpLeg
		{
			OFFSET 11.394100 -6.187798 -0.413800
			CHANNELS 3 Xrotation Yrotation Zrotation
			JOINT LeftLeg
			{
				OFFSET 0.430247 -32.302673 3.732800
				CHANNELS 3 Xrotation Yrotation Zrotation
				JOINT LeftFoot
				{
					OFFSET -0.430247 -48.264931 -6.423300
					CHANNELS 3 Xrotation Yrotation Zrotation
					JOINT LeftToeBase
					{
						OFFSET 4.230900 -16.068199 23.438400
						CHANNELS 3 Xrotation Yrotation Zrotation
						JOINT LeftToe_End
						{
							OFFSET 4.510700 0.695400 19.974600
							CHANNELS 3 Xrotation Yrotation Zrotation
							End Site
							{
								OFFSET 0 0 0
							}
						}
					}
				}
			}
		}
	}
	JOINT RightUpLeg_virtual
	{
		OFFSET 0.000000 0.000000 0.000000
		CHANNELS 3 Xrotation Yrotation Zrotation
		JOINT RightUpLeg
		{
			OFFSET -11.333700 -6.187798 -0.413800
			CHANNELS 3 Xrotation Yrotation Zrotation
			JOINT RightLeg
			{
				OFFSET -0.430392 -32.302628 3.733000
				CHANNELS 3 Xrotation Yrotation Zrotation
				JOINT RightFoot
				{
					OFFSET 0.430392 -48.264973 -6.423500
					CHANNELS 3 Xrotation Yrotation Zrotation
					JOINT RightToeBase
					{
						OFFSET -4.230900 -16.068199 23.438400
						CHANNELS 3 Xrotation Yrotation Zrotation
						JOINT RightToe_End
						{
							OFFSET -4.510700 0.695400 19.974600
							CHANNELS 3 Xrotation Yrotation Zrotation
							End Site
							{
								OFFSET 0 0 0
							}
						}
					}
				}
			}
		}
	}
	JOINT Spine_virtual
	{
		OFFSET 0.000000 0.000000 0.000000
		CHANNELS 3 Xrotation Yrotation Zrotation
		JOINT Spine
		{
			OFFSET -0.002400 12.777504 0.315300
			CHANNELS 3 Xrotation Yrotation Zrotation
			JOINT Spine1
			{
				OFFSET -0.002067 5.816869 0.032633
				CHANNELS 3 Xrotation Yrotation Zrotation
				JOINT Spine1_split
				{
					OFFSET -0.002067 5.816869 0.032633
					CHANNELS 3 Xrotation Yrotation Zrotation
					JOINT Spine2
					{
						OFFSET -0.002067 5.816869 0.032633
						CHANNELS 3 Xrotation Yrotation Zrotation
						JOINT Neck_virtual
						{
							OFFSET 0.000000 0.000000 0.000000
							CHANNELS 3 Xrotation Yrotation Zrotation
							JOINT Neck
							{
								OFFSET -0.003700 21.199493 -0.826900
								CHANNELS 3 Xrotation Yrotation Zrotation
								JOINT Head
								{
									OFFSET 0.000000 20.442200 4.834800
									CHANNELS 3 Xrotation Yrotation Zrotation
									JOINT HeadTop_End
									{
										OFFSET 0.000000 34.668396 4.968400
										CHANNELS 3 Xrotation Yrotation Zrotation
										End Site
										{
											OFFSET 0 0 0
										}
									}
								}
							}
						}
						JOINT LeftShoulder_virtual
						{
							OFFSET 0.000000 0.000000 0.000000
							CHANNELS 3 Xrotation Yrotation Zrotation
							JOINT LeftShoulder
							{
								OFFSET 3.288150 8.794197 -1.372250
								CHANNELS 3 Xrotation Yrotation Zrotation
								JOINT LeftShoulder_split
								{
									OFFSET 3.288150 8.794197 -1.372250
									CHANNELS 3 Xrotation Yrotation Zrotation
									JOINT LeftArm
									{
										OFFSET 11.953299 -2.279007 -0.146200
										CHANNELS 3 Xrotation Yrotation Zrotation
										JOINT LeftForeArm
										{
											OFFSET 18.448900 0.000000 0.000000
											CHANNELS 3 Xrotation Yrotation Zrotation
											JOINT LeftHand
											{
												OFFSET 29.527798 0.000000 0.000000
												CHANNELS 3 Xrotation Yrotation Zrotation
												End Site
												{
													OFFSET 0 0 0
												}
											}
										}
									}
								}
							}
						}
						JOINT RightShoulder_virtual
						{
							OFFSET 0.000000 0.000000 0.000000
							CHANNELS 3 Xrotation Yrotation Zrotation
							JOINT RightShoulder
							{
								OFFSET -3.249400 8.794197 -1.372250
								CHANNELS 3 Xrotation Yrotation Zrotation
								JOINT RightShoulder_split
								{
									OFFSET -3.249400 8.794197 -1.372250
									CHANNELS 3 Xrotation Yrotation Zrotation
									JOINT RightArm
									{
										OFFSET -11.953299 -2.279007 -0.146200
										CHANNELS 3 Xrotation Yrotation Zrotation
										JOINT RightForeArm
										{
											OFFSET -18.448900 0.000000 0.000000
											CHANNELS 3 Xrotation Yrotation Zrotation
											JOINT RightHand
											{
												OFFSET -29.527802 0.000000 0.000000
												CHANNELS 3 Xrotation Yrotation Zrotation
												End Site
												{
													OFFSET 0 0 0
												}
											}
										}
									}
								}
							}
						}
					}
				}
			}
		}
	}
}
MOTION
Frames: 8
Frame Time: 0.03333333
-2.552407 101.589394 -3.003078 0.000000 0.000000 0.000000 1.847150 6.306726 6.585443 -12.959153 5.378772 2.181097 15.399812 6.055457 1.247676 -3.276362 1.024790 -5.757733 0.506651 0.295556 -1.999047 0.000000 0.000000 0.000000 2.216280 6.316787 6.659387 -18.048725 -10.060699 -12.625216 22.413804 -1.795235 -3.217363 -7.432947 -7.095819 4.905212 -3.868286 -0.584444 -1.934561 0.000000 0.000000 0.000000 2.479003 5.985634 6.191976 8.112234 -1.087927 6.513706 2.324123 -0.152251 1.570087 0.818181 -0.517672 0.413424 0.000000 0.000000 0.000000 1.475029 -0.139081 1.266961 0.705377 0.541681 2.452435 -4.838995 -13.535581 -1.079121 0.000000 0.000000 0.000000 2.016660 -0.248226 1.366272 1.085002 -5.181011 -12.178198 0.281751 -0.048046 -1.405740 6.586192 -7.467893 -41.008688 0.092736 -68.798119 0.063096 0.000000 0.000000 0.000000 2.105668 -0.057753 1.268150 1.293304 16.327354 13.517996 -1.264250 1.151182 0.413785 -27.462763 14.080082 60.894647 -140.258071 88.295782 139.753457 0.000000 0.000000 0.000000 
-2.549195 101.589890 -2.898418 0.000000 0.000000 0.000000 1.844333 5.990386 6.616817 -12.752721 5.397426 2.232075 15.383299 6.190798 1.284949 -3.413813 0.957578 -5.840331 0.548735 0.298067 -1.993250 0.000000 0.000000 0.000000 2.213386 5.996906 6.691920 -17.718187 -9.425400 -12.527952 22.286637 -2.189425 -3.196532 -7.599999 -7.161244 4.946203 -3.816661 -0.601034 -1.966892 0.000000 0.000000 0.000000 2.464473 5.872149 6.214267 8.041895 -1.389233 6.553870 2.294053 -0.186460 1.565542 0.828886 -0.605132 0.374361 0.000000 0.000000 0.000000 1.479347 -0.171244 1.246490 0.701265 0.731767 2.299794 -5.548006 -13.258303 -1.311766 0.000000 0.000000 0.000000 1.985572 -0.275667 1.380804 1.024966 -5.307307 -12.320283 0.391930 0.140433 -1.482409 6.882872 -7.754807 -40.955098 0.127247 -68.973975 0.038181 0.000000 0.000000 0.000000 2.074125 -0.126353 1.269129 1.378742 16.812094 13.692405 -1.416386 1.319909 0.458161 -21.939970 16.664678 60.574325 -170.668081 84.032801 170.122035 0.000000 0.000000 0.000000 
-2.503224 101.597893 -2.821205 0.000000 0.000000 0.000000 1.799905 5.666435 6.629236 -12.536759 5.449709 2.277574 15.384170 6.377413 1.296274 -3.557818 0.872511 -5.899893 0.619199 0.298759 -1.975050 0.000000 0.000000 0.000000 2.169425 5.666704 6.703074 -17.343331 -8.800946 -12.456868 22.130477 -2.574947 -3.170337 -7.684010 -7.226239 5.013824 -3.737336 -0.620771 -1.994117 0.000000 0.000000 0.000000 2.440926 5.702391 6.213802 7.979795 -1.721578 6.565991 2.255057 -0.264848 1.556609 0.850628 -0.651108 0.331843 0.000000 0.000000 0.000000 1.471117 -0.239446 1.234579 0.714687 0.927793 2.116704 -6.248726 -12.897775 -1.608078 0.000000 0.000000 0.000000 1.951538 -0.336989 1.396407 0.966068 -5.459911 -12.393827 0.484094 0.362121 -1.495188 7.276507 -8.187777 -40.863277 0.165588 -69.064892 0.000505 0.000000 0.000000 0.000000 2.037030 -0.228869 1.276087 1.490543 17.368748 13.687063 -1.524037 1.416879 0.570388 -16.821518 20.274677 59.667843 -174.807449 80.674178 174.232744 0.000000 0.000000 0.000000 
-2.414649 101.619324 -2.760174 0.000000 0.000000 0.000000 1.705184 5.321376 6.621202 -12.291968 5.522926 2.313397 15.394765 6.622157 1.286760 -3.720325 0.793409 -5.930989 0.717821 0.300046 -1.953133 0.000000 0.000000 0.000000 2.072958 5.314508 6.692652 -16.944241 -8.209889 -12.409696 21.966650 -2.922263 -3.140354 -7.655871 -7.280410 5.136486 -3.691072 -0.642401 -2.018320 0.000000 0.000000 0.000000 2.389303 5.440290 6.189069 7.919557 -2.059028 6.525687 2.209474 -0.369473 1.537660 0.863826 -0.669207 0.309312 0.000000 0.000000 0.000000 1.454861 -0.327353 1.220697 0.745102 1.111888 1.903848 -6.882299 -12.493026 -1.942946 0.000000 0.000000 0.000000 1.918737 -0.418588 1.407366 0.910677 -5.609666 -12.374204 0.553103 0.624552 -1.464333 7.710789 -8.746210 -40.758153 0.242559 -69.116884 -0.012450 0.000000 0.000000 0.000000 1.995648 -0.349178 1.279611 1.619563 18.055125 13.533642 -1.656447 1.529342 0.635519 -12.118537 24.844606 57.898018 -176.129733 78.598238 175.542747 0.000000 0.000000 0.000000 
-2.292057 101.657387 -2.703678 0.000000 0.000000 0.000000 1.559456 4.943457 6.586236 -11.992418 5.605044 2.349317 15.400931 6.929987 1.260401 -3.908711 0.741121 -5.926607 0.829281 0.302753 -1.930930 0.000000 0.000000 0.000000 1.924096 4.923127 6.654945 -16.533875 -7.655358 -12.367194 21.785657 -3.210593 -3.112835 -7.529575 -7.317294 5.302783 -3.685551 -0.666903 -2.034410 0.000000 0.000000 0.000000 2.287840 5.077618 6.139155 7.853536 -2.365495 6.416658 2.168464 -0.478324 1.500105 0.815751 -0.669636 0.314419 0.000000 0.000000 0.000000 1.432250 -0.408228 1.194023 0.805275 1.276563 1.667811 -7.410621 -12.126127 -2.285009 0.000000 0.000000 0.000000 1.894926 -0.499781 1.407498 0.856072 -5.746724 -12.248197 0.617623 0.880350 -1.394525 8.085337 -9.373010 -40.669532 0.345685 -69.184892 -0.000527 0.000000 0.000000 0.000000 1.934353 -0.464842 1.270820 1.755507 18.901613 13.245834 -1.682469 1.647562 0.565176 -7.771177 30.187749 55.007239 -176.259520 77.711987 175.661332 0.000000 0.000000 0.000000 
-2.143210 101.718384 -2.648090 0.000000 0.000000 0.000000 1.365923 4.513196 6.513129 -11.616851 5.695632 2.396404 15.392718 7.298309 1.220528 -4.131702 0.724390 -5.881946 0.941079 0.307681 -1.908746 0.000000 0.000000 0.000000 1.725296 4.484290 6.580586 -16.112254 -7.131137 -12.306435 21.575820 -3.432221 -3.094764 -7.347425 -7.335912 5.471902 -3.704577 -0.695072 -2.033361 0.000000 0.000000 0.000000 2.130158 4.632335 6.053137 7.774541 -2.604403 6.232411 2.132763 -0.565566 1.436395 0.715846 -0.751031 0.353953 0.000000 0.000000 0.000000 1.405100 -0.458894 1.145036 0.894424 1.406631 1.427384 -7.826983 -11.875896 -2.612149 0.000000 0.000000 0.000000 1.872194 -0.558277 1.390434 0.799666 -5.877333 -12.026177 0.704038 1.142894 -1.307596 8.288299 -10.031135 -40.641142 0.465781 -69.311155 0.038883 0.000000 0.000000 0.000000 1.847753 -0.560673 1.238800 1.895771 19.917487 12.867354 -1.660578 1.786734 0.444447 -3.581780 35.944420 50.849713 -175.647590 77.833953 175.032928 0.000000 0.000000 0.000000 
-1.973884 101.801636 -2.595234 0.000000 0.000000 0.000000 1.138361 4.012724 6.387683 -11.166109 5.800453 2.475585 15.369749 7.715958 1.171251 -4.398596 0.739195 -5.802243 1.064737 0.312186 -1.888534 0.000000 0.000000 0.000000 1.505347 3.996344 6.456151 -15.693336 -6.618229 -12.210697 21.327836 -3.590137 -3.089500 -7.124321 -7.338035 5.607830 -3.735188 -0.725139 -2.014133 0.000000 0.000000 0.000000 1.922823 4.123762 5.919660 7.681194 -2.751213 5.975177 2.106997 -0.619210 1.344980 0.645939 -0.939859 0.390390 0.000000 0.000000 0.000000 1.381090 -0.469751 1.071830 0.972622 1.502035 1.204881 -8.153755 -11.823077 -2.901640 0.000000 0.000000 0.000000 1.838484 -0.582837 1.349359 0.737633 -6.017367 -11.750207 0.808046 1.343498 -1.181458 8.253654 -10.680635 -40.700585 0.555323 -69.495092 0.073314 0.000000 0.000000 0.000000 1.733510 -0.626757 1.182955 2.033464 21.087051 12.479923 -1.640414 1.901415 0.343443 0.680156 41.721411 45.493954 -174.426994 78.717302 173.800871 0.000000 0.000000 0.000000 
-1.788728 101.902939 -2.552433 0.000000 0.000000 0.000000 0.900539 3.440637 6.191926 -10.659859 5.926820 2.608156 15.335156 8.159330 1.112750 -4.717514 0.776020 -5.702154 1.201724 0.316308 -1.867536 0.000000 0.000000 0.000000 1.282077 3.456447 6.265494 -15.301048 -6.108953 -12.068512 21.037744 -3.679622 -3.096413 -6.830357 -7.321911 5.711162 -3.777837 -0.756355 -1.985350 0.000000 0.000000 0.000000 1.687664 3.572079 5.723973 7.582002 -2.793208 5.665575 2.093792 -0.637059 1.232191 0.659400 -1.170696 0.436103 0.000000 0.000000 0.000000 1.357281 -0.442453 0.983957 1.031421 1.547960 1.017866 -8.421687 -12.007300 -3.147612 0.000000 0.000000 0.000000 1.791825 -0.570171 1.286928 0.670318 -6.188162 -11.458869 0.918921 1.500035 -1.046372 7.992085 -11.316368 -40.841697 0.575891 -69.680497 0.075135 0.000000 0.000000 0.000000 1.597517 -0.659980 1.111001 2.165965 22.381762 12.132033 -1.598715 1.967045 0.326213 5.203272 47.079442 39.099333 -172.499228 80.213892 171.880741 0.000000 0.000000 0.000000 
